<svg xmlns="http://www.w3.org/2000/svg" version="1.1" xmlns:xlink="http://www.w3.org/1999/xlink" xmlns:svgjs="http://svgjs.dev/svgjs" viewBox="0 0 20.16608693371513 6.3272358522289895"><g transform="matrix(0.7413270532542454,0,0,0.7413270532542454,7.774720781027416,2.4356810927596544)"><rect width="22.373863832543805" height="22.373863832543805" x="-8.073160908324502" y="-10.204994416271902" fill="#202020"></rect><g clip-path="url(#SvgjsClipPath40806)"><g clip-path="url(#SvgjsClipPath40801f92f4f56-8dc6-483a-95d5-d03489a8af4c)"><path d=" M -4.678193462745078 1.522315182154082 C -4.724297406359586 1.522315182154082 -4.76167203720985 1.4849405513038176 -4.76167203720985 1.4388366076893102 L -4.76167203720985 0.07233408298823174 C -4.761666391813494 0.03097389355522817 -4.731375686317961 -0.004146279639448025 -4.690464813191366 -0.010226227157432932 L -3.330640574447507 -0.21236959522387133 C -3.306628172827409 -0.21584916894146833 -3.2822829578308133 -0.20878905659245584 -3.2638577148756927 -0.1930025659480441 C -3.245462476872265 -0.17714204614080142 -3.2348871985050756 -0.15405624394153938 -3.234890649536416 -0.1297675457909807 L -3.234890649536416 1.2061400813687593 C -3.234890649536416 1.2522440249832658 -3.272265280386679 1.28961865583353 -3.3183692240011835 1.28961865583353 C -3.3644731676156923 1.28961865583353 -3.4018477984659556 1.2522440249832658 -3.4018477984659556 1.2061400813687593 L -3.4018477984659556 -0.033141095848006286 L -4.594673148993075 0.14412565702793656 L -4.594673148993075 1.438669650540381 C -4.59462879402588 1.4608456926623457 -4.603409980263998 1.482128049127216 -4.619079091034685 1.4978206518181016 C -4.63474820180538 1.5135132545089878 -4.656017379059546 1.5223263145551291 -4.678193462745078 1.5223151821540828 Z" fill="#0094ff" transform="matrix(1,0,0,1,0,0)" fill-rule="nonzero"></path></g><g clip-path="url(#SvgjsClipPath40801f92f4f56-8dc6-483a-95d5-d03489a8af4c)"><path d=" M -3.5511074896089627 1.522315182154082 C -3.7256403631361312 1.5221081850508074 -3.867075593291009 1.3806729548959336 -3.8672825903942902 1.2061400813687602 C -3.8670526515523447 1.0316167274476569 -3.725630843530062 0.8901949194253789 -3.5511074896089587 0.8899649805834382 C -3.376574616081794 0.8901719776867127 -3.2351393859269204 1.0316072078415868 -3.2349323888236388 1.2061400813687602 C -3.2351164326266306 1.3806824775298905 -3.376565093447843 1.522131138351099 -3.5511074896089703 1.522315182154082 Z M -3.5511074896089627 1.05692212951298 C -3.633480146565806 1.0570141403859319 -3.700233430591792 1.1237674244119162 -3.7003254414647464 1.2061400813687593 C -3.7002334305918034 1.288512738325585 -3.6334801465658217 1.3552660223515764 -3.5511074896089783 1.3553580332245372 C -3.4687253067340365 1.3552889881962416 -3.4019585827814804 1.2885222642436855 -3.4018895377531826 1.2061400813687593 C -3.4019815486261376 1.1237674244119176 -3.468734832652123 1.0570141403859328 -3.5511074896089627 1.056922129512981 Z" fill="#0094ff" transform="matrix(1,0,0,1,0,0)" fill-rule="nonzero"></path></g><g clip-path="url(#SvgjsClipPath40801f92f4f56-8dc6-483a-95d5-d03489a8af4c)"><path d=" M -4.910889989065626 1.7550117084746328 C -5.085416084803281 1.7548046663469532 -5.226839349707234 1.6133627292400834 -5.2270233505637185 1.4388366076893102 C -5.226839349707237 1.2643104861385472 -5.085416084803293 1.1228685490316734 -4.910889989065641 1.122661506903988 C -4.736347592904498 1.1228455507069732 -4.594898932083289 1.2642942115281834 -4.594714888280302 1.4388366076893102 C -4.594898932083289 1.6133790038504414 -4.736347592904503 1.7548276646716499 -4.9108899890656295 1.7550117084746328 Z M -4.910889989065626 1.289618655833531 C -4.993246345351738 1.2897336595819957 -5.059974237855151 1.3564802224526442 -5.060066201634175 1.4388366076893102 C -5.059974237855159 1.5211929929259624 -4.9932463453517535 1.5879395557966167 -4.9108899890656454 1.588054559545089 C -4.828517332108782 1.5879625486721363 -4.761764048082801 1.5212092646461528 -4.761672037209846 1.4388366076893102 C -4.761764048082789 1.3564639507324818 -4.82851733210877 1.2897106667064917 -4.910889989065614 1.289618655833531 Z" fill="#0094ff" transform="matrix(1,0,0,1,0,0)" fill-rule="nonzero"></path></g><g clip-path="url(#SvgjsClipPath40801f92f4f56-8dc6-483a-95d5-d03489a8af4c)"><path d=" M -4.6783186806067745 0.5243288244277382 C -4.719756661773963 0.524257430704822 -4.754869933578502 0.49379986599177395 -4.7607955121779675 0.45278768611142883 C -4.763968489567018 0.430874502815066 -4.758305799503214 0.4085984149677342 -4.745053358646009 0.39086065301709194 C -4.731800917788801 0.37312289106644947 -4.712044480622274 0.3613766857632079 -4.690130898893537 0.3582064612428426 L -3.330348399436878 0.1614474612293766 C -3.2847591648643206 0.15500824435806293 -3.242518010620156 0.18656794168170454 -3.235767174568294 0.23211207451380655 C -3.232594197179243 0.2540252578101687 -3.238256887243044 0.2763013456575021 -3.2515093281002483 0.2940391076081428 C -3.2647617689574604 0.31177686955878503 -3.2845182061239835 0.3235230748620277 -3.30643178785272 0.3266932993823919 L -4.666256026596614 0.5234522993958579 C -4.67025054025118 0.5240347308644941 -4.674281928890677 0.524327669139337 -4.6783186806067745 0.5243288244277391 Z" fill="#0094ff" transform="matrix(1,0,0,1,0,0)" fill-rule="nonzero"></path></g><g clip-path="url(#SvgjsClipPath40801f92f4f56-8dc6-483a-95d5-d03489a8af4c)"><path d=" M -2.897178076539175 2.038880600942089 C -2.943282020153683 2.038880600942089 -2.9806566510039465 2.001505970091824 -2.9806566510039465 1.9554020264773166 L -2.9806566510039465 0.5887742839145425 C -2.98065100560759 0.5474140944815378 -2.950360300112057 0.5122939212868618 -2.909449426985463 0.5062139737688769 L -1.5496669275288344 0.3041123449896703 C -1.52564874763915 0.3005483311021979 -1.501269016675983 0.30761845308151625 -1.4828840679570163 0.32347937426549667 C -1.4644998669417157 0.33933037561002943 -1.4539256918488013 0.36239853280119694 -1.4539170026177395 0.386672655135329 L -1.4539170026177395 1.7226220215823007 C -1.4539170026177395 1.7687259651968095 -1.4912916334680073 1.8061005960470728 -1.5373955770825116 1.8061005960470728 C -1.5834995206970204 1.8061005960470728 -1.6208741515472838 1.7687259651968095 -1.6208741515472838 1.7226220215823007 L -1.6208741515472838 0.4835078015144645 L -2.8136995020744027 0.6607745543904073 L -2.8136995020744027 1.9552768086156198 C -2.8136662596639503 1.9774383906451374 -2.8224466210980035 1.9987036756606487 -2.838105495106093 2.0143860379797505 C -2.853764369114183 2.0300684002988536 -2.8750164695778526 2.0388806258739103 -2.897178076539175 2.038880600942089 Z" fill="#0094ff" transform="matrix(1,0,0,1,0,0)" fill-rule="nonzero"></path></g><g clip-path="url(#SvgjsClipPath40801f92f4f56-8dc6-483a-95d5-d03489a8af4c)"><path d=" M -1.7700921034030674 2.038880600942089 C -1.9446114476051983 2.0386965571881013 -2.086041421147165 1.8972665836461355 -2.0862254649011485 1.7227472394439975 C -2.0860414640446714 1.5482211178932341 -1.9446181991407268 1.4067791807863612 -1.7700921034030754 1.4065721386586758 C -1.5955497072419362 1.4067561824616606 -1.454101046420731 1.5482048432828712 -1.4539170026177395 1.7227472394439975 C -1.454124044745389 1.897273335181597 -1.5955659818522347 2.0386966000855726 -1.7700921034030133 2.038880600942089 Z M -1.7700921034030674 1.5735292875882188 C -1.852448459689172 1.5736442913366835 -1.9191763521925846 1.640390854207332 -1.9192683159716086 1.7227472394439975 C -1.9191763051536346 1.805096844443438 -1.852441708402468 1.8718314411945922 -1.77009210340304 1.871923452012545 C -1.6877261986722614 1.871854443137296 -1.6209662030560432 1.8051131216457201 -1.6208741515472838 1.7227472394439975 C -1.6209661624202267 1.6403745824871696 -1.6877194464462084 1.5736212984611795 -1.7700921034030515 1.5735292875882188 Z" fill="#0094ff" transform="matrix(1,0,0,1,0,0)" fill-rule="nonzero"></path></g><g clip-path="url(#SvgjsClipPath40801f92f4f56-8dc6-483a-95d5-d03489a8af4c)"><path d=" M -3.1298328635724957 2.2716188665498716 C -3.304382011269171 2.2714118243661447 -3.445823963446695 2.129951199983712 -3.446007964357819 1.9554020264773175 C -3.445800922230154 1.7808759307396902 -3.3043589851232973 1.6394526658357282 -3.1298328635725188 1.6392686649792276 C -2.955313519370365 1.6394527087332151 -2.8138835458283977 1.78088268227518 -2.8136995020744147 1.9554020264773175 C -2.813860502459772 2.129944447563762 -2.9552904910780486 2.271411782363363 -3.129832863572484 2.2716188665498716 Z M -3.1298328635724957 1.8062258139087697 C -3.2121987683033018 1.8062948227840185 -3.27895876391952 1.8730361442755936 -3.2790508154282794 1.9554020264773158 C -3.2789818065120073 2.0377909831656416 -3.212221797738087 2.104569666067912 -3.1298328635725268 2.1046617176203277 C -3.0474602310187318 2.10454666865824 -2.980725617360004 2.037774710503903 -2.980656651003958 1.9554020264773166 C -2.980748661821928 1.8730524214778757 -3.047483258573095 1.806317824726721 -3.1298328635725188 1.8062258139087697 Z" fill="#0094ff" transform="matrix(1,0,0,1,0,0)" fill-rule="nonzero"></path></g><g clip-path="url(#SvgjsClipPath40801f92f4f56-8dc6-483a-95d5-d03489a8af4c)"><path d=" M -2.8973032944008756 1.0408942432157446 C -2.9387412755680677 1.0408228494928284 -2.9738545473726106 1.0103652847797808 -2.979780125972072 0.9693531048994357 C -2.982953103361119 0.9474399216030718 -2.977290413297314 0.9251638337557391 -2.96403797244011 0.9074260718050975 C -2.950785531582902 0.889688309854455 -2.931029094416375 0.8779421045512126 -2.9091155126876385 0.8747718800308484 L -1.5493330132309788 0.6780128800173832 C -1.5037315423073085 0.6715258266368127 -1.461460220267739 0.7031080632709659 -1.4547517883623984 0.7486774933018123 C -1.451578810973344 0.7705906765981763 -1.457241501037145 0.7928667644455099 -1.4704939418943495 0.8106045263961503 C -1.4837463827515611 0.8283422883467928 -1.5035028199180838 0.8400884936500352 -1.5254164016468206 0.8432587181703994 L -2.8852406403907147 1.0400177181838646 C -2.8892351540452808 1.0406001496524997 -2.893266542684778 1.0408930879273428 -2.8973032944008756 1.0408942432157446 Z" fill="#0094ff" transform="matrix(1,0,0,1,0,0)" fill-rule="nonzero"></path></g><g clip-path="url(#SvgjsClipPath40801f92f4f56-8dc6-483a-95d5-d03489a8af4c)"><path d=" M -3.7838040159295185 2.0632563446858017 L -5.7819054350310575 2.0632563446858017 C -5.828009378645562 2.0632563446858017 -5.865384009495825 2.0258817138355383 -5.865384009495825 1.9797777702210295 C -5.865384009495825 1.933673826606523 -5.828009378645562 1.8962991957562587 -5.7819054350310575 1.8962991957562587 L -3.7838040159295185 1.8962991957562587 C -3.7377000723150102 1.8962991957562587 -3.7003254414647464 1.933673826606522 -3.7003254414647464 1.9797777702210295 C -3.7003254414647464 2.0258817138355383 -3.7377000723150102 2.0632563446858017 -3.7838040159295185 2.0632563446858017 Z" fill="#0094ff" transform="matrix(1,0,0,1,0,0)" fill-rule="nonzero"></path></g><g clip-path="url(#SvgjsClipPath40801f92f4f56-8dc6-483a-95d5-d03489a8af4c)"><path d=" M -5.467859037894584 1.547901365227534 L -5.7819054350310575 1.547901365227534 C -5.828009378645562 1.547901365227534 -5.865384009495825 1.5105267343772693 -5.865384009495825 1.4644227907627627 C -5.865384009495825 1.4183188471482553 -5.828009378645562 1.380944216297991 -5.7819054350310575 1.380944216297991 L -5.467859037894584 1.380944216297991 C -5.421755094280076 1.380944216297991 -5.384380463429813 1.4183188471482553 -5.384380463429813 1.4644227907627627 C -5.384380463429813 1.5105267343772693 -5.421755094280076 1.547901365227534 -5.467859037894584 1.547901365227534 Z" fill="#0094ff" transform="matrix(1,0,0,1,0,0)" fill-rule="nonzero"></path></g><g clip-path="url(#SvgjsClipPath40801f92f4f56-8dc6-483a-95d5-d03489a8af4c)"><path d=" M -5.077763659420707 1.032546385769268 L -5.7819054350310575 1.032546385769268 C -5.828009378645562 1.032546385769268 -5.865384009495825 0.9951717549190038 -5.865384009495825 0.9490678113044964 C -5.865384009495825 0.9029638676899887 -5.828009378645562 0.8655892368397242 -5.7819054350310575 0.8655892368397242 L -5.077763659420707 0.8655892368397242 C -5.0316597158061995 0.8655892368397242 -4.994285084955935 0.9029638676899887 -4.994285084955935 0.9490678113044964 C -4.994285084955935 0.9951717549190038 -5.0316597158061995 1.032546385769268 -5.077763659420707 1.032546385769268 Z" fill="#0094ff" transform="matrix(1,0,0,1,0,0)" fill-rule="nonzero"></path></g><g clip-path="url(#SvgjsClipPath40801f92f4f56-8dc6-483a-95d5-d03489a8af4c)"><path d=" M -5.077763659420707 0.5171914063110004 L -5.7819054350310575 0.5171914063110004 C -5.828009378645562 0.5171914063110004 -5.865384009495825 0.47981677546073587 -5.865384009495825 0.43371283184622844 C -5.865384009495825 0.387608888231721 -5.828009378645562 0.35023425738145764 -5.7819054350310575 0.35023425738145764 L -5.077763659420707 0.35023425738145764 C -5.0316597158061995 0.35023425738145764 -4.994285084955935 0.387608888231721 -4.994285084955935 0.43371283184622844 C -4.994285084955935 0.47981677546073587 -5.0316597158061995 0.5171914063110004 -5.077763659420707 0.5171914063110004 Z" fill="#0094ff" transform="matrix(1,0,0,1,0,0)" fill-rule="nonzero"></path></g><g clip-path="url(#SvgjsClipPath40801f92f4f56-8dc6-483a-95d5-d03489a8af4c)"><path d=" M -4.0627894117907815 1.032546385769268 L -4.320863424748623 1.032546385769268 C -4.366967368363132 1.032546385769268 -4.404341999213395 0.9951717549190038 -4.404341999213395 0.9490678113044964 C -4.404341999213395 0.9029638676899887 -4.366967368363132 0.8655892368397242 -4.320863424748623 0.8655892368397242 L -4.0627894117907815 0.8655892368397242 C -4.016685468176274 0.8655892368397242 -3.9793108373260098 0.9029638676899887 -3.9793108373260098 0.9490678113044964 C -3.9793108373260098 0.9951717549190038 -4.016685468176274 1.032546385769268 -4.0627894117907815 1.032546385769268 Z" fill="#0094ff" transform="matrix(1,0,0,1,0,0)" fill-rule="nonzero"></path></g><g clip-path="url(#SvgjsClipPath40801f92f4f56-8dc6-483a-95d5-d03489a8af4c)"><path d=" M -5.077763659420707 0.0018364268527326644 L -5.7819054350310575 0.0018364268527326644 C -5.828009378645562 0.0018364268527326644 -5.865384009495825 -0.035538203997531825 -5.865384009495825 -0.08164214761203836 C -5.865384009495825 -0.1277460912265458 -5.828009378645562 -0.16512072207681017 -5.7819054350310575 -0.16512072207681017 L -5.077763659420707 -0.16512072207681017 C -5.0316597158061995 -0.16512072207681017 -4.994285084955935 -0.1277460912265458 -4.994285084955935 -0.08164214761203836 C -4.994285084955935 -0.035538203997531825 -5.0316597158061995 0.0018364268527326644 -5.077763659420707 0.0018364268527326644 Z" fill="#0094ff" transform="matrix(1,0,0,1,0,0)" fill-rule="nonzero"></path></g><g clip-path="url(#SvgjsClipPath40801f92f4f56-8dc6-483a-95d5-d03489a8af4c)"><path d=" M -0.4834785744647716 0.5171914063110004 L -1.2192587297972723 0.5171914063110004 C -1.2653626734117767 0.5171914063110004 -1.30273730426204 0.47981677546073587 -1.30273730426204 0.43371283184622844 C -1.30273730426204 0.387608888231721 -1.2653626734117767 0.35023425738145764 -1.2192587297972723 0.35023425738145764 L -0.4834785744647716 0.35023425738145764 C -0.43737463085026373 0.35023425738145764 -0.40000000000000036 0.387608888231721 -0.40000000000000036 0.43371283184622844 C -0.40000000000000036 0.47981677546073587 -0.43737463085026373 0.5171914063110004 -0.4834785744647716 0.5171914063110004 Z" fill="#0094ff" transform="matrix(1,0,0,1,0,0)" fill-rule="nonzero"></path></g><g clip-path="url(#SvgjsClipPath40801f92f4f56-8dc6-483a-95d5-d03489a8af4c)"><path d=" M -0.4834785744647716 0.0018364268527326644 L -2.9624165824833955 0.0018364268527326644 C -3.0085205260978998 0.0018364268527326644 -3.045895156948167 -0.035538203997531825 -3.045895156948167 -0.08164214761203836 C -3.045895156948167 -0.1277460912265458 -3.0085205260978998 -0.16512072207681017 -2.9624165824833955 -0.16512072207681017 L -0.4834785744647716 -0.16512072207681017 C -0.43737463085026373 -0.16512072207681017 -0.40000000000000036 -0.1277460912265458 -0.40000000000000036 -0.08164214761203836 C -0.40000000000000036 -0.035538203997531825 -0.43737463085026373 0.0018364268527326644 -0.4834785744647716 0.0018364268527326644 Z" fill="#0094ff" transform="matrix(1,0,0,1,0,0)" fill-rule="nonzero"></path></g><g clip-path="url(#SvgjsClipPath40801f92f4f56-8dc6-483a-95d5-d03489a8af4c)"><path d=" M -4.05414937933368 1.547901365227534 L -4.36823751575738 1.547901365227534 C -4.414341459371888 1.547901365227534 -4.451716090222152 1.5105267343772693 -4.451716090222152 1.4644227907627627 C -4.451716090222152 1.4183188471482553 -4.414341459371888 1.380944216297991 -4.36823751575738 1.380944216297991 L -4.05414937933368 1.380944216297991 C -4.008045435719172 1.380944216297991 -3.970670804868908 1.4183188471482553 -3.970670804868908 1.4644227907627627 C -3.970670804868908 1.5105267343772693 -4.008045435719172 1.547901365227534 -4.05414937933368 1.547901365227534 Z" fill="#0094ff" transform="matrix(1,0,0,1,0,0)" fill-rule="nonzero"></path></g><g clip-path="url(#SvgjsClipPath40801f92f4f56-8dc6-483a-95d5-d03489a8af4c)"><path d=" M -0.4834785744647716 1.032546385769268 L -1.2192587297972723 1.032546385769268 C -1.2653626734117767 1.032546385769268 -1.30273730426204 0.9951717549190038 -1.30273730426204 0.9490678113044964 C -1.30273730426204 0.9029638676899887 -1.2653626734117767 0.8655892368397242 -1.2192587297972723 0.8655892368397242 L -0.4834785744647716 0.8655892368397242 C -0.43737463085026373 0.8655892368397242 -0.40000000000000036 0.9029638676899887 -0.40000000000000036 0.9490678113044964 C -0.40000000000000036 0.9951717549190038 -0.43737463085026373 1.032546385769268 -0.4834785744647716 1.032546385769268 Z" fill="#0094ff" transform="matrix(1,0,0,1,0,0)" fill-rule="nonzero"></path></g><g clip-path="url(#SvgjsClipPath40801f92f4f56-8dc6-483a-95d5-d03489a8af4c)"><path d=" M -2.3107828302113904 1.547901365227534 L -2.624829227347859 1.547901365227534 C -2.6709331709623676 1.547901365227534 -2.708307801812631 1.5105267343772693 -2.708307801812631 1.4644227907627627 C -2.708307801812631 1.4183188471482553 -2.6709331709623676 1.380944216297991 -2.624829227347859 1.380944216297991 L -2.3107828302113904 1.380944216297991 C -2.2646788865968817 1.380944216297991 -2.2273042557466183 1.4183188471482553 -2.2273042557466183 1.4644227907627627 C -2.2273042557466183 1.5105267343772693 -2.2646788865968817 1.547901365227534 -2.3107828302113904 1.547901365227534 Z" fill="#0094ff" transform="matrix(1,0,0,1,0,0)" fill-rule="nonzero"></path></g><g clip-path="url(#SvgjsClipPath40801f92f4f56-8dc6-483a-95d5-d03489a8af4c)"><path d=" M -0.4834785744647716 1.547901365227534 L -1.2473075308174284 1.547901365227534 C -1.2934114744319363 1.547901365227534 -1.3307861052821996 1.5105267343772693 -1.3307861052821996 1.4644227907627627 C -1.3307861052821996 1.4183188471482553 -1.2934114744319363 1.380944216297991 -1.2473075308174284 1.380944216297991 L -0.4834785744647716 1.380944216297991 C -0.43737463085026373 1.380944216297991 -0.40000000000000036 1.4183188471482553 -0.40000000000000036 1.4644227907627627 C -0.40000000000000036 1.5105267343772693 -0.43737463085026373 1.547901365227534 -0.4834785744647716 1.547901365227534 Z" fill="#0094ff" transform="matrix(1,0,0,1,0,0)" fill-rule="nonzero"></path></g><g clip-path="url(#SvgjsClipPath40801f92f4f56-8dc6-483a-95d5-d03489a8af4c)"><path d=" M -2.3107828302113904 2.038880600942089 L -2.624829227347859 2.038880600942089 C -2.6709331709623676 2.038880600942089 -2.708307801812631 2.001505970091824 -2.708307801812631 1.9554020264773166 C -2.708307801812631 1.9092980828628092 -2.6709331709623676 1.871923452012545 -2.624829227347859 1.871923452012545 L -2.3107828302113904 1.871923452012545 C -2.2646788865968817 1.871923452012545 -2.2273042557466183 1.9092980828628083 -2.2273042557466183 1.9554020264773166 C -2.2273042557466183 2.001505970091824 -2.2646788865968817 2.038880600942089 -2.3107828302113904 2.038880600942089 Z" fill="#0094ff" transform="matrix(1,0,0,1,0,0)" fill-rule="nonzero"></path></g><g clip-path="url(#SvgjsClipPath40801f92f4f56-8dc6-483a-95d5-d03489a8af4c)"><path d=" M -0.4834785744647716 2.038880600942089 L -1.2473075308174284 2.038880600942089 C -1.2934114744319363 2.038880600942089 -1.3307861052821996 2.001505970091824 -1.3307861052821996 1.9554020264773166 C -1.3307861052821996 1.9092980828628092 -1.2934114744319363 1.871923452012545 -1.2473075308174284 1.871923452012545 L -0.4834785744647716 1.871923452012545 C -0.43737463085026373 1.871923452012545 -0.40000000000000036 1.9092980828628083 -0.40000000000000036 1.9554020264773166 C -0.40000000000000036 2.001505970091824 -0.43737463085026373 2.038880600942089 -0.4834785744647716 2.038880600942089 Z" fill="#0094ff" transform="matrix(1,0,0,1,0,0)" fill-rule="nonzero"></path></g><g clip-path="url(#SvgjsClipPath40801f92f4f56-8dc6-483a-95d5-d03489a8af4c)"><path d=" M -1.9456475455024815 -0.4145547025775477 C -1.9917514891169863 -0.4145547025775477 -2.0291261199672537 -0.45192933342781205 -2.0291261199672537 -0.4980332770423196 L -2.0291261199672537 -0.8289006069334407 C -2.0291261199672537 -0.8750045505479482 -1.9917514891169863 -0.9123791813982126 -1.9456475455024815 -0.9123791813982126 C -1.8995436018879732 -0.9123791813982126 -1.8621689710377094 -0.8750045505479482 -1.8621689710377094 -0.8289006069334407 L -1.8621689710377094 -0.4980332770423196 C -1.8621689710377094 -0.45192933342781205 -1.8995436018879732 -0.4145547025775477 -1.9456475455024815 -0.4145547025775477 Z" fill="#0094ff" transform="matrix(1,0,0,1,0,0)" fill-rule="nonzero"></path></g><g clip-path="url(#SvgjsClipPath40801f92f4f56-8dc6-483a-95d5-d03489a8af4c)"><path d=" M -1.7704677569881584 -0.5799257585922598 L -2.120869073304036 -0.5799257585922598 C -2.166973016918541 -0.5799257585922598 -2.204347647768808 -0.6173003894425242 -2.204347647768808 -0.6634043330570316 C -2.204347647768808 -0.7095082766715382 -2.166973016918541 -0.7468829075218026 -2.120869073304036 -0.7468829075218026 L -1.7704677569881584 -0.7468829075218026 C -1.7243638133736496 -0.7468829075218026 -1.6869891825233863 -0.7095082766715382 -1.6869891825233863 -0.6634043330570316 C -1.6869891825233863 -0.6173003894425242 -1.7243638133736496 -0.5799257585922598 -1.7704677569881584 -0.5799257585922598 Z" fill="#0094ff" transform="matrix(1,0,0,1,0,0)" fill-rule="nonzero"></path></g><g clip-path="url(#SvgjsClipPath40801f92f4f56-8dc6-483a-95d5-d03489a8af4c)"><path d=" M -4.445663893573458 3.041625237412924 C -4.491767837187963 3.041625237412924 -4.52914246803823 3.0042506065626604 -4.52914246803823 2.9581466629481525 L -4.52914246803823 2.6273210723442633 C -4.52914246803823 2.5812171287297545 -4.491767837187963 2.543842497879491 -4.445663893573458 2.543842497879491 C -4.399559949958949 2.543842497879491 -4.362185319108686 2.5812171287297545 -4.362185319108686 2.6273210723442633 L -4.362185319108686 2.9581466629481525 C -4.362185319108686 3.0042506065626604 -4.399559949958949 3.041625237412924 -4.445663893573458 3.041625237412924 Z" fill="#0094ff" transform="matrix(1,0,0,1,0,0)" fill-rule="nonzero"></path></g><g clip-path="url(#SvgjsClipPath40801f92f4f56-8dc6-483a-95d5-d03489a8af4c)"><path d=" M -4.270442365771903 2.8760872242492823 L -4.62105237852394 2.8760872242492823 C -4.667156322138449 2.8760872242492823 -4.704530952988712 2.838712593399019 -4.704530952988712 2.792608649784511 C -4.704530952988712 2.7465047061700028 -4.667156322138449 2.7091300753197394 -4.62105237852394 2.7091300753197394 L -4.270442365771903 2.7091300753197394 C -4.224338422157395 2.7091300753197394 -4.186963791307131 2.7465047061700028 -4.186963791307131 2.792608649784511 C -4.186963791307131 2.838712593399019 -4.224338422157395 2.8760872242492823 -4.270442365771903 2.8760872242492823 Z" fill="#0094ff" transform="matrix(1,0,0,1,0,0)" fill-rule="nonzero"></path></g><g clip-path="url(#SvgjsClipPath40801f92f4f56-8dc6-483a-95d5-d03489a8af4c)"><path d=" M -1.2471823129557356 2.8760872242492823 C -1.2932862565702434 2.8760872242492823 -1.3306608874205068 2.838712593399019 -1.3306608874205068 2.792608649784511 L -1.3306608874205068 2.461741319893388 C -1.3306608874205068 2.4156373762788808 -1.2932862565702434 2.3782627454286174 -1.2471823129557356 2.3782627454286174 C -1.2010783693412268 2.3782627454286174 -1.1637037384909634 2.4156373762788808 -1.1637037384909634 2.461741319893388 L -1.1637037384909634 2.79260864978451 C -1.1637037384909634 2.814748544280866 -1.1724987773347815 2.8359816463392087 -1.1881540468679077 2.851636915872337 C -1.2038093164010375 2.867292185405464 -1.2250424184593829 2.876087224249282 -1.2471823129557356 2.876087224249282 Z" fill="#0094ff" transform="matrix(1,0,0,1,0,0)" fill-rule="nonzero"></path></g><g clip-path="url(#SvgjsClipPath40801f92f4f56-8dc6-483a-95d5-d03489a8af4c)"><path d=" M -1.0720025244414115 2.710799646809034 L -1.4226125371934524 2.710799646809034 C -1.4687164808079611 2.710799646809034 -1.5060911116582245 2.6734250159587707 -1.5060911116582245 2.6273210723442633 C -1.5060911116582245 2.5812171287297545 -1.4687164808079611 2.543842497879491 -1.4226125371934524 2.543842497879491 L -1.0720025244414115 2.543842497879491 C -1.0258985808269072 2.543842497879491 -0.9885239499766394 2.5812171287297545 -0.9885239499766394 2.6273210723442633 C -0.9885239499766394 2.6734250159587707 -1.0258985808269072 2.710799646809034 -1.0720025244414115 2.710799646809034 Z" fill="#0094ff" transform="matrix(1,0,0,1,0,0)" fill-rule="nonzero"></path></g><g clip-path="url(#SvgjsClipPath40801f92f4f56-8dc6-483a-95d5-d03489a8af4c)"><path d=" M -4.909136939001869 -0.5799257585922598 C -4.955240882616378 -0.5799257585922598 -4.9926155134666415 -0.6173003894425242 -4.9926155134666415 -0.6634043330570316 L -4.9926155134666415 -0.9942299236609199 C -4.9926155134666415 -1.0403338672754274 -4.955240882616378 -1.0777084981256917 -4.909136939001869 -1.0777084981256917 C -4.863032995387365 -1.0777084981256917 -4.825658364537097 -1.0403338672754274 -4.825658364537097 -0.9942299236609199 L -4.825658364537097 -0.6634043330570316 C -4.825658364537097 -0.6173003894425242 -4.863032995387365 -0.5799257585922598 -4.909136939001869 -0.5799257585922598 Z" fill="#0094ff" transform="matrix(1,0,0,1,0,0)" fill-rule="nonzero"></path></g><g clip-path="url(#SvgjsClipPath40801f92f4f56-8dc6-483a-95d5-d03489a8af4c)"><path d=" M -4.733957150487546 -0.7454220324686698 L -5.084358466803424 -0.7454220324686698 C -5.130462410417932 -0.7454220324686698 -5.1678370412681955 -0.7827966633189332 -5.1678370412681955 -0.8289006069334407 C -5.1678370412681955 -0.8750045505479482 -5.130462410417932 -0.9123791813982126 -5.084358466803424 -0.9123791813982126 L -4.733957150487546 -0.9123791813982126 C -4.687853206873041 -0.9123791813982126 -4.650478576022774 -0.8750045505479482 -4.650478576022774 -0.8289006069334407 C -4.650478576022774 -0.7827966633189332 -4.687853206873041 -0.7454220324686698 -4.733957150487546 -0.7454220324686698 Z" fill="#0094ff" transform="matrix(1,0,0,1,0,0)" fill-rule="nonzero"></path></g></g><g><path d=" M 0.11325 0.2647499999999998 Q 0.1785 0.14249999999999985 0.2985 0.07424999999999982 Q 0.4185 0.005999999999999783 0.5745 0.005999999999999783 Q 0.7725 0.005999999999999783 0.9075 0.1117499999999998 Q 1.0425 0.2174999999999998 1.0815000000000001 0.3989999999999998 L 0.765 0.3989999999999998 Q 0.7365 0.33899999999999986 0.68625 0.3074999999999998 Q 0.636 0.2759999999999998 0.5700000000000001 0.2759999999999998 Q 0.468 0.2759999999999998 0.40725 0.3487499999999998 Q 0.34650000000000003 0.4214999999999999 0.34650000000000003 0.5429999999999998 Q 0.34650000000000003 0.6659999999999998 0.40725 0.7387499999999998 Q 0.468 0.8114999999999999 0.5700000000000001 0.8114999999999999 Q 0.636 0.8114999999999999 0.68625 0.7799999999999998 Q 0.7365 0.7484999999999998 0.765 0.6884999999999999 L 1.0815000000000001 0.6884999999999999 Q 1.0425 0.8699999999999999 0.9075 0.9757499999999999 Q 0.7725 1.0815 0.5745 1.0815 Q 0.4185 1.0815 0.2985 1.0132499999999998 Q 0.1785 0.9449999999999998 0.11325 0.8227499999999999 Q 0.048 0.7004999999999999 0.048 0.5429999999999998 Q 0.048 0.3869999999999998 0.11325 0.2647499999999998 M 1.454993408203125 1.0147499999999998 Q 1.330493408203125 0.9449999999999998 1.257743408203125 0.8212499999999998 Q 1.184993408203125 0.6974999999999998 1.184993408203125 0.5414999999999999 Q 1.184993408203125 0.38549999999999984 1.257743408203125 0.2617499999999998 Q 1.330493408203125 0.1379999999999998 1.454993408203125 0.06899999999999973 Q 1.579493408203125 -2.220446049250313e-16 1.727993408203125 -2.220446049250313e-16 Q 1.877993408203125 -2.220446049250313e-16 2.001743408203125 0.06899999999999973 Q 2.125493408203125 0.1379999999999998 2.197493408203125 0.2617499999999998 Q 2.2694934082031253 0.38549999999999984 2.2694934082031253 0.5414999999999999 Q 2.2694934082031253 0.6974999999999998 2.197493408203125 0.8212499999999998 Q 2.125493408203125 0.9449999999999998 2.000993408203125 1.0147499999999998 Q 1.876493408203125 1.0844999999999998 1.727993408203125 1.0844999999999998 Q 1.579493408203125 1.0844999999999998 1.454993408203125 1.0147499999999998 M 1.905743408203125 0.7379999999999998 Q 1.970993408203125 0.6644999999999999 1.970993408203125 0.5414999999999999 Q 1.970993408203125 0.41549999999999987 1.905743408203125 0.3427499999999998 Q 1.840493408203125 0.2699999999999998 1.727993408203125 0.2699999999999998 Q 1.613993408203125 0.2699999999999998 1.549493408203125 0.3427499999999998 Q 1.484993408203125 0.41549999999999987 1.484993408203125 0.5414999999999999 Q 1.484993408203125 0.6659999999999998 1.549493408203125 0.7387499999999998 Q 1.613993408203125 0.8114999999999999 1.727993408203125 0.8114999999999999 Q 1.840493408203125 0.8114999999999999 1.905743408203125 0.7379999999999998 M 2.497474365234375 0.9967499999999998 Q 2.378974365234375 0.9089999999999998 2.369974365234375 0.7454999999999998 L 2.683474365234375 0.7454999999999998 Q 2.687974365234375 0.8009999999999998 2.716474365234375 0.8264999999999998 Q 2.744974365234375 0.8519999999999999 2.789974365234375 0.8519999999999999 Q 2.830474365234375 0.8519999999999999 2.856724365234375 0.8317499999999999 Q 2.882974365234375 0.8114999999999999 2.882974365234375 0.7754999999999999 Q 2.882974365234375 0.7289999999999999 2.8394743652343752 0.7034999999999998 Q 2.795974365234375 0.6779999999999998 2.6984743652343752 0.6464999999999999 Q 2.594974365234375 0.6119999999999999 2.531224365234375 0.5797499999999998 Q 2.467474365234375 0.5474999999999999 2.420224365234375 0.48524999999999985 Q 2.372974365234375 0.4229999999999998 2.372974365234375 0.3224999999999998 Q 2.372974365234375 0.2204999999999998 2.423974365234375 0.14774999999999983 Q 2.474974365234375 0.07499999999999984 2.564974365234375 0.03749999999999987 Q 2.654974365234375 -2.220446049250313e-16 2.7689743652343752 -2.220446049250313e-16 Q 2.953474365234375 -2.220446049250313e-16 3.063724365234375 0.08624999999999983 Q 3.173974365234375 0.17249999999999988 3.181474365234375 0.3284999999999998 L 2.861974365234375 0.3284999999999998 Q 2.860474365234375 0.28049999999999986 2.832724365234375 0.25649999999999984 Q 2.804974365234375 0.23249999999999982 2.761474365234375 0.23249999999999982 Q 2.728474365234375 0.23249999999999982 2.707474365234375 0.2519999999999998 Q 2.6864743652343748 0.27149999999999985 2.6864743652343748 0.3074999999999998 Q 2.6864743652343748 0.3374999999999998 2.7097243652343748 0.35924999999999985 Q 2.732974365234375 0.3809999999999998 2.767474365234375 0.3967499999999998 Q 2.801974365234375 0.41249999999999987 2.869474365234375 0.4364999999999998 Q 2.969974365234375 0.47099999999999986 3.035224365234375 0.5047499999999998 Q 3.100474365234375 0.5384999999999999 3.147724365234375 0.5992499999999998 Q 3.194974365234375 0.6599999999999998 3.194974365234375 0.7529999999999999 Q 3.194974365234375 0.8474999999999998 3.147724365234375 0.9224999999999999 Q 3.100474365234375 0.9974999999999998 3.011224365234375 1.041 Q 2.921974365234375 1.0844999999999998 2.800474365234375 1.0844999999999998 Q 2.6159743652343748 1.0844999999999998 2.497474365234375 0.9967499999999998 M 4.565967041015625 0.016499999999999737 L 4.565967041015625 1.0739999999999998 L 4.271967041015625 1.0739999999999998 L 4.271967041015625 0.4904999999999998 L 4.072467041015625 1.0739999999999998 L 3.8264670410156247 1.0739999999999998 L 3.625467041015625 0.4859999999999999 L 3.625467041015625 1.0739999999999998 L 3.331467041015625 1.0739999999999998 L 3.331467041015625 0.016499999999999737 L 3.686967041015625 0.016499999999999737 L 3.952467041015625 0.7034999999999998 L 4.211967041015625 0.016499999999999737 L 4.565967041015625 0.016499999999999737 M 5.02796337890625 0.016499999999999737 L 5.02796337890625 1.0739999999999998 L 4.73396337890625 1.0739999999999998 L 4.73396337890625 0.016499999999999737 L 5.02796337890625 0.016499999999999737 M 5.2251884765625 0.2647499999999998 Q 5.2904384765625 0.14249999999999985 5.4104384765625 0.07424999999999982 Q 5.5304384765625 0.005999999999999783 5.6864384765625005 0.005999999999999783 Q 5.8844384765625 0.005999999999999783 6.0194384765625 0.1117499999999998 Q 6.1544384765625 0.2174999999999998 6.1934384765625 0.3989999999999998 L 5.8769384765625 0.3989999999999998 Q 5.8484384765625 0.33899999999999986 5.7981884765625 0.3074999999999998 Q 5.7479384765625 0.2759999999999998 5.6819384765625 0.2759999999999998 Q 5.5799384765625 0.2759999999999998 5.5191884765625 0.3487499999999998 Q 5.4584384765625 0.4214999999999999 5.4584384765625 0.5429999999999998 Q 5.4584384765625 0.6659999999999998 5.5191884765625 0.7387499999999998 Q 5.5799384765625 0.8114999999999999 5.6819384765625 0.8114999999999999 Q 5.7479384765625 0.8114999999999999 5.7981884765625 0.7799999999999998 Q 5.8484384765625 0.7484999999999998 5.8769384765625 0.6884999999999999 L 6.1934384765625 0.6884999999999999 Q 6.1544384765625 0.8699999999999999 6.0194384765625 0.9757499999999999 Q 5.8844384765625 1.0815 5.6864384765625005 1.0815 Q 5.5304384765625 1.0815 5.4104384765625 1.0132499999999998 Q 5.2904384765625 0.9449999999999998 5.2251884765625 0.8227499999999999 Q 5.1599384765625 0.7004999999999999 5.1599384765625 0.5429999999999998 Q 5.1599384765625 0.3869999999999998 5.2251884765625 0.2647499999999998 M 7.567431884765625 0.016499999999999737 L 7.567431884765625 1.0739999999999998 L 7.273431884765625 1.0739999999999998 L 7.273431884765625 0.4904999999999998 L 7.073931884765625 1.0739999999999998 L 6.827931884765625 1.0739999999999998 L 6.626931884765625 0.4859999999999999 L 6.626931884765625 1.0739999999999998 L 6.332931884765625 1.0739999999999998 L 6.332931884765625 0.016499999999999737 L 6.688431884765625 0.016499999999999737 L 6.953931884765625 0.7034999999999998 L 7.213431884765625 0.016499999999999737 L 7.567431884765625 0.016499999999999737 M 8.40442822265625 0.9014999999999999 L 8.02942822265625 0.9014999999999999 L 7.97242822265625 1.0739999999999998 L 7.66342822265625 1.0739999999999998 L 8.04892822265625 0.016499999999999737 L 8.38792822265625 0.016499999999999737 L 8.77192822265625 1.0739999999999998 L 8.46142822265625 1.0739999999999998 L 8.40442822265625 0.9014999999999999 M 8.33092822265625 0.6764999999999999 L 8.21692822265625 0.3344999999999998 L 8.10442822265625 0.6764999999999999 L 8.33092822265625 0.6764999999999999 M 9.403435546875 1.0739999999999998 L 9.193435546875 0.6839999999999998 L 9.161935546875 0.6839999999999998 L 9.161935546875 1.0739999999999998 L 8.867935546875 1.0739999999999998 L 8.867935546875 0.016499999999999737 L 9.331435546875 0.016499999999999737 Q 9.458935546875 0.016499999999999737 9.547435546875 0.06074999999999986 Q 9.635935546875 0.10499999999999987 9.680935546875 0.1822499999999998 Q 9.725935546875 0.25949999999999984 9.725935546875 0.3554999999999998 Q 9.725935546875 0.4634999999999998 9.666685546875 0.5452499999999998 Q 9.607435546875 0.6269999999999998 9.493435546875 0.6614999999999998 L 9.731935546875 1.0739999999999998 L 9.403435546875 1.0739999999999998 M 9.161935546875 0.4829999999999999 L 9.307435546875 0.4829999999999999 Q 9.367435546875 0.4829999999999999 9.397435546875 0.4544999999999998 Q 9.427435546875 0.4259999999999998 9.427435546875 0.3719999999999998 Q 9.427435546875 0.32099999999999984 9.396685546875 0.29174999999999984 Q 9.365935546875 0.26249999999999984 9.307435546875 0.26249999999999984 L 9.161935546875 0.26249999999999984 L 9.161935546875 0.4829999999999999 M 9.88870166015625 0.2647499999999998 Q 9.95395166015625 0.14249999999999985 10.07395166015625 0.07424999999999982 Q 10.19395166015625 0.005999999999999783 10.34995166015625 0.005999999999999783 Q 10.54795166015625 0.005999999999999783 10.68295166015625 0.1117499999999998 Q 10.81795166015625 0.2174999999999998 10.85695166015625 0.3989999999999998 L 10.54045166015625 0.3989999999999998 Q 10.51195166015625 0.33899999999999986 10.46170166015625 0.3074999999999998 Q 10.41145166015625 0.2759999999999998 10.34545166015625 0.2759999999999998 Q 10.24345166015625 0.2759999999999998 10.18270166015625 0.3487499999999998 Q 10.12195166015625 0.4214999999999999 10.12195166015625 0.5429999999999998 Q 10.12195166015625 0.6659999999999998 10.18270166015625 0.7387499999999998 Q 10.24345166015625 0.8114999999999999 10.34545166015625 0.8114999999999999 Q 10.41145166015625 0.8114999999999999 10.46170166015625 0.7799999999999998 Q 10.51195166015625 0.7484999999999998 10.54045166015625 0.6884999999999999 L 10.85695166015625 0.6884999999999999 Q 10.81795166015625 0.8699999999999999 10.68295166015625 0.9757499999999999 Q 10.54795166015625 1.0815 10.34995166015625 1.0815 Q 10.19395166015625 1.0815 10.07395166015625 1.0132499999999998 Q 9.95395166015625 0.9449999999999998 9.88870166015625 0.8227499999999999 Q 9.82345166015625 0.7004999999999999 9.82345166015625 0.5429999999999998 Q 9.82345166015625 0.3869999999999998 9.88870166015625 0.2647499999999998 M 11.230445068359375 1.0147499999999998 Q 11.105945068359375 0.9449999999999998 11.033195068359374 0.8212499999999998 Q 10.960445068359375 0.6974999999999998 10.960445068359375 0.5414999999999999 Q 10.960445068359375 0.38549999999999984 11.033195068359374 0.2617499999999998 Q 11.105945068359375 0.1379999999999998 11.230445068359375 0.06899999999999973 Q 11.354945068359376 -2.220446049250313e-16 11.503445068359374 -2.220446049250313e-16 Q 11.653445068359375 -2.220446049250313e-16 11.777195068359376 0.06899999999999973 Q 11.900945068359375 0.1379999999999998 11.972945068359374 0.2617499999999998 Q 12.044945068359375 0.38549999999999984 12.044945068359375 0.5414999999999999 Q 12.044945068359375 0.6974999999999998 11.972945068359374 0.8212499999999998 Q 11.900945068359375 0.9449999999999998 11.776445068359376 1.0147499999999998 Q 11.651945068359375 1.0844999999999998 11.503445068359374 1.0844999999999998 Q 11.354945068359376 1.0844999999999998 11.230445068359375 1.0147499999999998 M 11.681195068359376 0.7379999999999998 Q 11.746445068359375 0.6644999999999999 11.746445068359375 0.5414999999999999 Q 11.746445068359375 0.41549999999999987 11.681195068359376 0.3427499999999998 Q 11.615945068359375 0.2699999999999998 11.503445068359374 0.2699999999999998 Q 11.389445068359375 0.2699999999999998 11.324945068359375 0.3427499999999998 Q 11.260445068359376 0.41549999999999987 11.260445068359376 0.5414999999999999 Q 11.260445068359376 0.6659999999999998 11.324945068359375 0.7387499999999998 Q 11.389445068359375 0.8114999999999999 11.503445068359374 0.8114999999999999 Q 11.615945068359375 0.8114999999999999 11.681195068359376 0.7379999999999998" fill="#ffffff" fill-rule="nonzero"></path></g><g><path d=" M 0.64275 1.437375 L 0.64275 1.963875 L 0.5145 1.963875 L 0.5145 1.648125 L 0.39675 1.963875 L 0.29325 1.963875 L 0.17475000000000002 1.647375 L 0.17475000000000002 1.963875 L 0.0465 1.963875 L 0.0465 1.437375 L 0.198 1.437375 L 0.34575 1.8018750000000001 L 0.492 1.437375 L 0.64275 1.437375 M 0.8647723388671875 1.437375 L 0.8647723388671875 1.752375 Q 0.8647723388671875 1.799625 0.8880223388671875 1.825125 Q 0.9112723388671875 1.850625 0.9562723388671875 1.850625 Q 1.0012723388671876 1.850625 1.0252723388671876 1.825125 Q 1.0492723388671874 1.799625 1.0492723388671874 1.752375 L 1.0492723388671874 1.437375 L 1.1775223388671876 1.437375 L 1.1775223388671876 1.751625 Q 1.1775223388671876 1.822125 1.1475223388671876 1.870875 Q 1.1175223388671875 1.9196250000000001 1.0668973388671876 1.944375 Q 1.0162723388671875 1.969125 0.9540223388671876 1.969125 Q 0.8917723388671875 1.969125 0.8426473388671876 1.94475 Q 0.7935223388671875 1.920375 0.7650223388671875 1.87125 Q 0.7365223388671875 1.822125 0.7365223388671875 1.751625 L 0.7365223388671875 1.437375 L 0.8647723388671875 1.437375 M 1.35828515625 1.950375 Q 1.31253515625 1.931625 1.2851601562500001 1.894875 Q 1.25778515625 1.858125 1.2562851562500001 1.806375 L 1.39278515625 1.806375 Q 1.39578515625 1.835625 1.41303515625 1.851 Q 1.43028515625 1.8663750000000001 1.45803515625 1.8663750000000001 Q 1.48653515625 1.8663750000000001 1.5030351562500002 1.85325 Q 1.5195351562500001 1.840125 1.5195351562500001 1.816875 Q 1.5195351562500001 1.797375 1.50641015625 1.7846250000000001 Q 1.49328515625 1.771875 1.47416015625 1.763625 Q 1.4550351562500001 1.7553750000000001 1.4197851562500001 1.744875 Q 1.36878515625 1.729125 1.33653515625 1.713375 Q 1.30428515625 1.697625 1.28103515625 1.666875 Q 1.25778515625 1.636125 1.25778515625 1.586625 Q 1.25778515625 1.513125 1.31103515625 1.4715 Q 1.36428515625 1.429875 1.4497851562500002 1.429875 Q 1.5367851562500001 1.429875 1.5900351562500001 1.4715 Q 1.6432851562500002 1.513125 1.64703515625 1.587375 L 1.5082851562500001 1.587375 Q 1.50678515625 1.5618750000000001 1.48953515625 1.54725 Q 1.4722851562500001 1.532625 1.44528515625 1.532625 Q 1.42203515625 1.532625 1.4077851562500001 1.545 Q 1.39353515625 1.557375 1.39353515625 1.580625 Q 1.39353515625 1.606125 1.41753515625 1.6203750000000001 Q 1.44153515625 1.634625 1.49253515625 1.651125 Q 1.5435351562500002 1.6683750000000002 1.57541015625 1.684125 Q 1.6072851562500001 1.699875 1.6305351562500001 1.729875 Q 1.65378515625 1.759875 1.65378515625 1.807125 Q 1.65378515625 1.852125 1.6309101562500001 1.888875 Q 1.6080351562500002 1.9256250000000001 1.56453515625 1.947375 Q 1.52103515625 1.969125 1.4617851562500002 1.969125 Q 1.40403515625 1.969125 1.35828515625 1.950375 M 1.86452783203125 1.437375 L 1.86452783203125 1.963875 L 1.73627783203125 1.963875 L 1.73627783203125 1.437375 L 1.86452783203125 1.437375 M 1.9732650146484374 1.56075 Q 2.0070150146484376 1.499625 2.0673900146484376 1.4655 Q 2.1277650146484373 1.431375 2.2042650146484375 1.431375 Q 2.2980150146484375 1.431375 2.3647650146484374 1.4808750000000002 Q 2.4315150146484372 1.530375 2.454015014648437 1.615875 L 2.313015014648437 1.615875 Q 2.2972650146484375 1.582875 2.2683900146484373 1.565625 Q 2.2395150146484375 1.548375 2.2027650146484374 1.548375 Q 2.1435150146484374 1.548375 2.1067650146484374 1.589625 Q 2.0700150146484373 1.630875 2.0700150146484373 1.699875 Q 2.0700150146484373 1.768875 2.1067650146484374 1.810125 Q 2.1435150146484374 1.851375 2.2027650146484374 1.851375 Q 2.2395150146484375 1.851375 2.2683900146484373 1.834125 Q 2.2972650146484375 1.816875 2.313015014648437 1.783875 L 2.454015014648437 1.783875 Q 2.4315150146484372 1.869375 2.3647650146484374 1.9185 Q 2.2980150146484375 1.967625 2.2042650146484375 1.967625 Q 2.1277650146484373 1.967625 2.0673900146484376 1.9335 Q 2.0070150146484376 1.899375 1.9732650146484374 1.838625 Q 1.9395150146484375 1.777875 1.9395150146484375 1.699875 Q 1.9395150146484375 1.621875 1.9732650146484374 1.56075 M 3.1020142822265626 1.963875 L 3.0532642822265625 1.916625 Q 2.9805142822265625 1.9721250000000001 2.8792642822265626 1.9721250000000001 Q 2.8185142822265625 1.9721250000000001 2.7735142822265626 1.95225 Q 2.7285142822265627 1.932375 2.7041392822265626 1.8960000000000001 Q 2.6797642822265626 1.859625 2.6797642822265626 1.810875 Q 2.6797642822265626 1.7613750000000001 2.7063892822265623 1.72125 Q 2.7330142822265624 1.681125 2.7862642822265626 1.6556250000000001 Q 2.7667642822265623 1.631625 2.7585142822265625 1.6095000000000002 Q 2.7502642822265626 1.587375 2.7502642822265626 1.561125 Q 2.7502642822265626 1.523625 2.7697642822265625 1.492875 Q 2.7892642822265623 1.462125 2.8263892822265624 1.4445000000000001 Q 2.8635142822265625 1.426875 2.9145142822265626 1.426875 Q 2.9662642822265624 1.426875 3.0022642822265624 1.4456250000000002 Q 3.0382642822265624 1.464375 3.0562642822265627 1.495875 Q 3.0742642822265625 1.5273750000000001 3.0727642822265624 1.564875 L 2.9520142822265623 1.564875 Q 2.9527642822265623 1.544625 2.9418892822265623 1.53375 Q 2.9310142822265624 1.522875 2.9130142822265626 1.522875 Q 2.8950142822265623 1.522875 2.8830142822265623 1.533375 Q 2.8710142822265623 1.543875 2.8710142822265623 1.560375 Q 2.8710142822265623 1.576125 2.8811392822265622 1.593375 Q 2.8912642822265626 1.610625 2.9130142822265626 1.6331250000000002 L 3.0412642822265625 1.758375 Q 3.0427642822265626 1.754625 3.0453892822265622 1.7493750000000001 Q 3.0480142822265623 1.744125 3.0510142822265625 1.7373750000000001 L 3.0787642822265626 1.690125 L 3.2070142822265626 1.690125 L 3.1710142822265626 1.7553750000000001 Q 3.1507642822265627 1.799625 3.1245142822265626 1.839375 L 3.2512642822265625 1.963875 L 3.1020142822265626 1.963875 M 2.9745142822265622 1.840125 L 2.8575142822265627 1.726875 Q 2.8035142822265624 1.754625 2.8035142822265624 1.8018750000000001 Q 2.8035142822265624 1.830375 2.8256392822265624 1.8495 Q 2.8477642822265623 1.868625 2.8852642822265624 1.868625 Q 2.9355142822265625 1.868625 2.9745142822265622 1.840125 M 4.060475830078126 1.437375 L 4.060475830078126 1.963875 L 3.932225830078125 1.963875 L 3.932225830078125 1.648125 L 3.814475830078125 1.963875 L 3.7109758300781253 1.963875 L 3.592475830078125 1.647375 L 3.592475830078125 1.963875 L 3.4642258300781252 1.963875 L 3.4642258300781252 1.437375 L 3.615725830078125 1.437375 L 3.763475830078125 1.8018750000000001 L 3.9097258300781252 1.437375 L 4.060475830078126 1.437375 M 4.284748168945313 1.437375 L 4.284748168945313 1.963875 L 4.156498168945313 1.963875 L 4.156498168945313 1.437375 L 4.284748168945313 1.437375 M 4.7242353515625 1.470375 Q 4.786485351562501 1.5033750000000001 4.8206103515625 1.5630000000000002 Q 4.854735351562501 1.622625 4.854735351562501 1.700625 Q 4.854735351562501 1.777875 4.8206103515625 1.837875 Q 4.786485351562501 1.897875 4.7238603515625 1.9308750000000001 Q 4.6612353515625005 1.963875 4.578735351562501 1.963875 L 4.3814853515625005 1.963875 L 4.3814853515625005 1.437375 L 4.578735351562501 1.437375 Q 4.6619853515625005 1.437375 4.7242353515625 1.470375 M 4.6837353515625 1.813125 Q 4.7242353515625 1.7733750000000001 4.7242353515625 1.700625 Q 4.7242353515625 1.627875 4.6837353515625 1.587375 Q 4.643235351562501 1.546875 4.570485351562501 1.546875 L 4.509735351562501 1.546875 L 4.509735351562501 1.852875 L 4.570485351562501 1.852875 Q 4.643235351562501 1.852875 4.6837353515625 1.813125 M 5.058727661132814 1.437375 L 5.058727661132814 1.963875 L 4.930477661132813 1.963875 L 4.930477661132813 1.437375 L 5.058727661132814 1.437375 M 5.660946166992188 1.470375 Q 5.723196166992189 1.5033750000000001 5.757321166992188 1.5630000000000002 Q 5.791446166992189 1.622625 5.791446166992189 1.700625 Q 5.791446166992189 1.777875 5.757321166992188 1.837875 Q 5.723196166992189 1.897875 5.660571166992188 1.9308750000000001 Q 5.597946166992188 1.963875 5.515446166992189 1.963875 L 5.3181961669921884 1.963875 L 5.3181961669921884 1.437375 L 5.515446166992189 1.437375 Q 5.598696166992188 1.437375 5.660946166992188 1.470375 M 5.620446166992188 1.813125 Q 5.660946166992188 1.7733750000000001 5.660946166992188 1.700625 Q 5.660946166992188 1.627875 5.620446166992188 1.587375 Q 5.579946166992189 1.546875 5.5071961669921885 1.546875 L 5.446446166992189 1.546875 L 5.446446166992189 1.852875 L 5.5071961669921885 1.852875 Q 5.579946166992189 1.852875 5.620446166992188 1.813125 M 6.1356884765625015 1.963875 L 6.026188476562501 1.765125 L 5.9954384765625015 1.765125 L 5.9954384765625015 1.963875 L 5.867188476562501 1.963875 L 5.867188476562501 1.437375 L 6.082438476562501 1.437375 Q 6.144688476562501 1.437375 6.188563476562501 1.459125 Q 6.232438476562501 1.4808750000000002 6.254188476562501 1.51875 Q 6.2759384765625015 1.556625 6.2759384765625015 1.603125 Q 6.2759384765625015 1.6556250000000001 6.246313476562501 1.696875 Q 6.216688476562501 1.7381250000000001 6.1589384765625015 1.7553750000000001 L 6.280438476562501 1.963875 L 6.1356884765625015 1.963875 M 5.9954384765625015 1.674375 L 6.074938476562501 1.674375 Q 6.110188476562501 1.674375 6.127813476562501 1.657125 Q 6.145438476562501 1.639875 6.145438476562501 1.608375 Q 6.145438476562501 1.578375 6.127813476562501 1.561125 Q 6.110188476562501 1.543875 6.074938476562501 1.543875 L 5.9954384765625015 1.543875 L 5.9954384765625015 1.674375 M 6.485921630859377 1.437375 L 6.485921630859377 1.752375 Q 6.485921630859377 1.799625 6.509171630859377 1.825125 Q 6.5324216308593765 1.850625 6.5774216308593765 1.850625 Q 6.622421630859376 1.850625 6.646421630859376 1.825125 Q 6.6704216308593764 1.799625 6.6704216308593764 1.752375 L 6.6704216308593764 1.437375 L 6.798671630859376 1.437375 L 6.798671630859376 1.751625 Q 6.798671630859376 1.822125 6.768671630859377 1.870875 Q 6.738671630859376 1.9196250000000001 6.688046630859376 1.944375 Q 6.637421630859376 1.969125 6.575171630859376 1.969125 Q 6.512921630859376 1.969125 6.463796630859377 1.94475 Q 6.4146716308593765 1.920375 6.386171630859376 1.87125 Q 6.357671630859376 1.822125 6.357671630859376 1.751625 L 6.357671630859376 1.437375 L 6.485921630859377 1.437375 M 7.488684448242189 1.437375 L 7.488684448242189 1.963875 L 7.360434448242189 1.963875 L 7.360434448242189 1.648125 L 7.242684448242189 1.963875 L 7.1391844482421885 1.963875 L 7.020684448242189 1.647375 L 7.020684448242189 1.963875 L 6.892434448242189 1.963875 L 6.892434448242189 1.437375 L 7.043934448242189 1.437375 L 7.191684448242189 1.8018750000000001 L 7.337934448242189 1.437375 L 7.488684448242189 1.437375 M 8.126188110351563 1.437375 L 8.126188110351563 1.540125 L 7.986688110351564 1.540125 L 7.986688110351564 1.963875 L 7.858438110351564 1.963875 L 7.858438110351564 1.540125 L 7.718938110351564 1.540125 L 7.718938110351564 1.437375 L 8.126188110351563 1.437375 M 8.462940673828125 1.963875 L 8.353440673828127 1.765125 L 8.322690673828125 1.765125 L 8.322690673828125 1.963875 L 8.194440673828126 1.963875 L 8.194440673828126 1.437375 L 8.409690673828125 1.437375 Q 8.471940673828126 1.437375 8.515815673828126 1.459125 Q 8.559690673828126 1.4808750000000002 8.581440673828126 1.51875 Q 8.603190673828125 1.556625 8.603190673828125 1.603125 Q 8.603190673828125 1.6556250000000001 8.573565673828126 1.696875 Q 8.543940673828127 1.7381250000000001 8.486190673828126 1.7553750000000001 L 8.607690673828126 1.963875 L 8.462940673828125 1.963875 M 8.322690673828125 1.674375 L 8.402190673828127 1.674375 Q 8.437440673828126 1.674375 8.455065673828125 1.657125 Q 8.472690673828126 1.639875 8.472690673828126 1.608375 Q 8.472690673828126 1.578375 8.455065673828125 1.561125 Q 8.437440673828126 1.543875 8.402190673828127 1.543875 L 8.322690673828125 1.543875 L 8.322690673828125 1.674375 M 9.014923828125001 1.870875 L 8.818423828125 1.870875 L 8.786923828125001 1.963875 L 8.652673828125002 1.963875 L 8.843173828125002 1.437375 L 8.991673828125002 1.437375 L 9.182173828125 1.963875 L 9.046423828125 1.963875 L 9.014923828125001 1.870875 M 8.981923828125002 1.771875 L 8.916673828125 1.5791250000000001 L 8.852173828125 1.771875 L 8.981923828125002 1.771875 M 9.255673461914064 1.56075 Q 9.289423461914064 1.499625 9.349798461914064 1.4655 Q 9.410173461914063 1.431375 9.486673461914064 1.431375 Q 9.580423461914064 1.431375 9.647173461914063 1.4808750000000002 Q 9.713923461914064 1.530375 9.736423461914065 1.615875 L 9.595423461914063 1.615875 Q 9.579673461914064 1.582875 9.550798461914063 1.565625 Q 9.521923461914064 1.548375 9.485173461914064 1.548375 Q 9.425923461914063 1.548375 9.389173461914064 1.589625 Q 9.352423461914064 1.630875 9.352423461914064 1.699875 Q 9.352423461914064 1.768875 9.389173461914064 1.810125 Q 9.425923461914063 1.851375 9.485173461914064 1.851375 Q 9.521923461914064 1.851375 9.550798461914063 1.834125 Q 9.579673461914064 1.816875 9.595423461914063 1.783875 L 9.736423461914065 1.783875 Q 9.713923461914064 1.869375 9.647173461914063 1.9185 Q 9.580423461914064 1.967625 9.486673461914064 1.967625 Q 9.410173461914063 1.967625 9.349798461914064 1.9335 Q 9.289423461914064 1.899375 9.255673461914064 1.838625 Q 9.221923461914063 1.777875 9.221923461914063 1.699875 Q 9.221923461914063 1.621875 9.255673461914064 1.56075 M 10.124191406250002 1.963875 L 9.94719140625 1.731375 L 9.94719140625 1.963875 L 9.818941406250001 1.963875 L 9.818941406250001 1.437375 L 9.94719140625 1.437375 L 9.94719140625 1.6683750000000002 L 10.122691406250002 1.437375 L 10.27344140625 1.437375 L 10.069441406250002 1.695375 L 10.280941406250001 1.963875 L 10.124191406250002 1.963875 M 10.432457519531251 1.950375 Q 10.386707519531251 1.931625 10.359332519531252 1.894875 Q 10.331957519531251 1.858125 10.330457519531251 1.806375 L 10.46695751953125 1.806375 Q 10.46995751953125 1.835625 10.487207519531252 1.851 Q 10.504457519531252 1.8663750000000001 10.532207519531251 1.8663750000000001 Q 10.56070751953125 1.8663750000000001 10.577207519531251 1.85325 Q 10.593707519531252 1.840125 10.593707519531252 1.816875 Q 10.593707519531252 1.797375 10.580582519531252 1.7846250000000001 Q 10.567457519531251 1.771875 10.548332519531252 1.763625 Q 10.529207519531251 1.7553750000000001 10.493957519531252 1.744875 Q 10.442957519531252 1.729125 10.410707519531252 1.713375 Q 10.378457519531251 1.697625 10.355207519531252 1.666875 Q 10.331957519531251 1.636125 10.331957519531251 1.586625 Q 10.331957519531251 1.513125 10.385207519531251 1.4715 Q 10.438457519531251 1.429875 10.523957519531251 1.429875 Q 10.61095751953125 1.429875 10.664207519531251 1.4715 Q 10.717457519531251 1.513125 10.721207519531252 1.587375 L 10.582457519531252 1.587375 Q 10.580957519531252 1.5618750000000001 10.56370751953125 1.54725 Q 10.546457519531252 1.532625 10.519457519531251 1.532625 Q 10.496207519531252 1.532625 10.481957519531251 1.545 Q 10.46770751953125 1.557375 10.46770751953125 1.580625 Q 10.46770751953125 1.606125 10.491707519531252 1.6203750000000001 Q 10.51570751953125 1.634625 10.566707519531251 1.651125 Q 10.617707519531251 1.6683750000000002 10.649582519531252 1.684125 Q 10.681457519531252 1.699875 10.70470751953125 1.729875 Q 10.727957519531252 1.759875 10.727957519531252 1.807125 Q 10.727957519531252 1.852125 10.705082519531251 1.888875 Q 10.682207519531252 1.9256250000000001 10.638707519531252 1.947375 Q 10.595207519531252 1.969125 10.535957519531252 1.969125 Q 10.478207519531251 1.969125 10.432457519531251 1.950375" fill="#bfe4ff" fill-rule="nonzero"></path></g></g><defs><clipPath id="SvgjsClipPath40806"><path d=" M -5.865384009495825 -1.0777919767001567 h 5.465384009495825 v 4.119458953400313 h -5.465384009495825 Z"></path></clipPath><clipPath id="SvgjsClipPath40801f92f4f56-8dc6-483a-95d5-d03489a8af4c"><path d=" M -5.865384009495825 -1.0777919767001567 L -0.40000000000000036 -1.0777919767001567 L -0.40000000000000036 3.0416669767001565 L -5.865384009495825 3.0416669767001565 Z"></path></clipPath></defs></svg>